<mxfile host="app.diagrams.net" agent="Mozilla/5.0 (Windows NT 10.0; Win64; x64) AppleWebKit/537.36 (KHTML, like Gecko) Chrome/128.0.0.0 Safari/537.36" version="24.7.8">
  <diagram id="prtHgNgQTEPvFCAcTncT" name="Page-1">
    <mxGraphModel dx="989" dy="532" grid="1" gridSize="10" guides="1" tooltips="1" connect="1" arrows="1" fold="1" page="1" pageScale="1" pageWidth="827" pageHeight="1169" math="0" shadow="0">
      <root>
        <mxCell id="0" />
        <mxCell id="1" parent="0" />
        <mxCell id="dNxyNK7c78bLwvsdeMH5-19" value="Pampered Pets - Proposed" style="swimlane;html=1;childLayout=stackLayout;resizeParent=1;resizeParentMax=0;horizontal=0;startSize=20;horizontalStack=0;" parent="1" vertex="1">
          <mxGeometry x="120" y="120" width="870" height="460" as="geometry" />
        </mxCell>
        <mxCell id="dNxyNK7c78bLwvsdeMH5-20" value="Supply Chain / Warehouse" style="swimlane;html=1;startSize=20;horizontal=0;" parent="dNxyNK7c78bLwvsdeMH5-19" vertex="1">
          <mxGeometry x="20" width="850" height="220" as="geometry" />
        </mxCell>
        <mxCell id="rN_zB71ed5MQVJDkOUgK-9" value="Stock level monitor&lt;div&gt;Automated ordering&lt;/div&gt;" style="points=[[0.25,0,0],[0.5,0,0],[0.75,0,0],[1,0.25,0],[1,0.5,0],[1,0.75,0],[0.75,1,0],[0.5,1,0],[0.25,1,0],[0,0.75,0],[0,0.5,0],[0,0.25,0]];shape=mxgraph.bpmn.task;whiteSpace=wrap;rectStyle=rounded;size=10;html=1;container=1;expand=0;collapsible=0;taskMarker=service;" vertex="1" parent="dNxyNK7c78bLwvsdeMH5-20">
          <mxGeometry x="220" y="120" width="120" height="80" as="geometry" />
        </mxCell>
        <mxCell id="rN_zB71ed5MQVJDkOUgK-16" value="" style="edgeStyle=orthogonalEdgeStyle;rounded=0;orthogonalLoop=1;jettySize=auto;html=1;" edge="1" parent="dNxyNK7c78bLwvsdeMH5-20" source="rN_zB71ed5MQVJDkOUgK-12" target="rN_zB71ed5MQVJDkOUgK-15">
          <mxGeometry relative="1" as="geometry" />
        </mxCell>
        <mxCell id="rN_zB71ed5MQVJDkOUgK-12" value="Supplies Shipped" style="points=[[0.25,0,0],[0.5,0,0],[0.75,0,0],[1,0.25,0],[1,0.5,0],[1,0.75,0],[0.75,1,0],[0.5,1,0],[0.25,1,0],[0,0.75,0],[0,0.5,0],[0,0.25,0]];shape=mxgraph.bpmn.task;whiteSpace=wrap;rectStyle=rounded;size=10;html=1;container=1;expand=0;collapsible=0;taskMarker=abstract;" vertex="1" parent="dNxyNK7c78bLwvsdeMH5-20">
          <mxGeometry x="30" y="10" width="120" height="80" as="geometry" />
        </mxCell>
        <mxCell id="rN_zB71ed5MQVJDkOUgK-13" style="edgeStyle=orthogonalEdgeStyle;rounded=0;orthogonalLoop=1;jettySize=auto;html=1;exitX=0;exitY=0.5;exitDx=0;exitDy=0;exitPerimeter=0;entryX=0.5;entryY=1;entryDx=0;entryDy=0;entryPerimeter=0;" edge="1" parent="dNxyNK7c78bLwvsdeMH5-20" source="rN_zB71ed5MQVJDkOUgK-9" target="rN_zB71ed5MQVJDkOUgK-12">
          <mxGeometry relative="1" as="geometry" />
        </mxCell>
        <mxCell id="rN_zB71ed5MQVJDkOUgK-22" style="edgeStyle=orthogonalEdgeStyle;rounded=0;orthogonalLoop=1;jettySize=auto;html=1;exitX=1;exitY=0.5;exitDx=0;exitDy=0;exitPerimeter=0;entryX=0.5;entryY=0;entryDx=0;entryDy=0;" edge="1" parent="dNxyNK7c78bLwvsdeMH5-20" source="rN_zB71ed5MQVJDkOUgK-15" target="rN_zB71ed5MQVJDkOUgK-21">
          <mxGeometry relative="1" as="geometry" />
        </mxCell>
        <mxCell id="rN_zB71ed5MQVJDkOUgK-15" value="Supplies Delivered" style="points=[[0.25,0,0],[0.5,0,0],[0.75,0,0],[1,0.25,0],[1,0.5,0],[1,0.75,0],[0.75,1,0],[0.5,1,0],[0.25,1,0],[0,0.75,0],[0,0.5,0],[0,0.25,0]];shape=mxgraph.bpmn.task;whiteSpace=wrap;rectStyle=rounded;size=10;html=1;container=1;expand=0;collapsible=0;taskMarker=abstract;" vertex="1" parent="dNxyNK7c78bLwvsdeMH5-20">
          <mxGeometry x="230" y="10" width="120" height="80" as="geometry" />
        </mxCell>
        <mxCell id="rN_zB71ed5MQVJDkOUgK-21" value="Stock update" style="shape=datastore;html=1;labelPosition=center;verticalLabelPosition=bottom;align=center;verticalAlign=top;" vertex="1" parent="dNxyNK7c78bLwvsdeMH5-20">
          <mxGeometry x="380" y="70" width="100" height="100" as="geometry" />
        </mxCell>
        <mxCell id="rN_zB71ed5MQVJDkOUgK-23" style="edgeStyle=orthogonalEdgeStyle;rounded=0;orthogonalLoop=1;jettySize=auto;html=1;exitX=0;exitY=0.5;exitDx=0;exitDy=0;entryX=1;entryY=0.5;entryDx=0;entryDy=0;entryPerimeter=0;" edge="1" parent="dNxyNK7c78bLwvsdeMH5-20" source="rN_zB71ed5MQVJDkOUgK-21" target="rN_zB71ed5MQVJDkOUgK-9">
          <mxGeometry relative="1" as="geometry" />
        </mxCell>
        <mxCell id="rN_zB71ed5MQVJDkOUgK-34" style="edgeStyle=orthogonalEdgeStyle;rounded=0;orthogonalLoop=1;jettySize=auto;html=1;exitX=1;exitY=0.5;exitDx=0;exitDy=0;exitPerimeter=0;" edge="1" parent="dNxyNK7c78bLwvsdeMH5-20" source="rN_zB71ed5MQVJDkOUgK-32" target="rN_zB71ed5MQVJDkOUgK-33">
          <mxGeometry relative="1" as="geometry" />
        </mxCell>
        <mxCell id="rN_zB71ed5MQVJDkOUgK-32" value="Order Received" style="points=[[0.25,0,0],[0.5,0,0],[0.75,0,0],[1,0.25,0],[1,0.5,0],[1,0.75,0],[0.75,1,0],[0.5,1,0],[0.25,1,0],[0,0.75,0],[0,0.5,0],[0,0.25,0]];shape=mxgraph.bpmn.task;whiteSpace=wrap;rectStyle=rounded;size=10;html=1;container=1;expand=0;collapsible=0;taskMarker=receive;" vertex="1" parent="dNxyNK7c78bLwvsdeMH5-20">
          <mxGeometry x="540" y="100" width="120" height="80" as="geometry" />
        </mxCell>
        <mxCell id="rN_zB71ed5MQVJDkOUgK-33" value="Order processed and shipped" style="points=[[0.25,0,0],[0.5,0,0],[0.75,0,0],[1,0.25,0],[1,0.5,0],[1,0.75,0],[0.75,1,0],[0.5,1,0],[0.25,1,0],[0,0.75,0],[0,0.5,0],[0,0.25,0]];shape=mxgraph.bpmn.task;whiteSpace=wrap;rectStyle=rounded;size=10;html=1;container=1;expand=0;collapsible=0;taskMarker=abstract;" vertex="1" parent="dNxyNK7c78bLwvsdeMH5-20">
          <mxGeometry x="710" y="100" width="120" height="80" as="geometry" />
        </mxCell>
        <mxCell id="rN_zB71ed5MQVJDkOUgK-37" style="edgeStyle=orthogonalEdgeStyle;rounded=0;orthogonalLoop=1;jettySize=auto;html=1;exitX=0.5;exitY=0;exitDx=0;exitDy=0;exitPerimeter=0;entryX=0.85;entryY=0.05;entryDx=0;entryDy=0;entryPerimeter=0;" edge="1" parent="dNxyNK7c78bLwvsdeMH5-20" source="rN_zB71ed5MQVJDkOUgK-33" target="rN_zB71ed5MQVJDkOUgK-21">
          <mxGeometry relative="1" as="geometry" />
        </mxCell>
        <mxCell id="dNxyNK7c78bLwvsdeMH5-21" value="Physical Customer" style="swimlane;html=1;startSize=20;horizontal=0;" parent="dNxyNK7c78bLwvsdeMH5-19" vertex="1">
          <mxGeometry x="20" y="220" width="850" height="120" as="geometry" />
        </mxCell>
        <mxCell id="rN_zB71ed5MQVJDkOUgK-20" value="" style="edgeStyle=orthogonalEdgeStyle;rounded=0;orthogonalLoop=1;jettySize=auto;html=1;" edge="1" parent="dNxyNK7c78bLwvsdeMH5-21" source="rN_zB71ed5MQVJDkOUgK-18" target="rN_zB71ed5MQVJDkOUgK-19">
          <mxGeometry relative="1" as="geometry" />
        </mxCell>
        <mxCell id="rN_zB71ed5MQVJDkOUgK-18" value="Enters Shop" style="points=[[0.25,0,0],[0.5,0,0],[0.75,0,0],[1,0.25,0],[1,0.5,0],[1,0.75,0],[0.75,1,0],[0.5,1,0],[0.25,1,0],[0,0.75,0],[0,0.5,0],[0,0.25,0]];shape=mxgraph.bpmn.task;whiteSpace=wrap;rectStyle=rounded;size=10;html=1;container=1;expand=0;collapsible=0;taskMarker=user;" vertex="1" parent="dNxyNK7c78bLwvsdeMH5-21">
          <mxGeometry x="30" y="20" width="120" height="80" as="geometry" />
        </mxCell>
        <mxCell id="rN_zB71ed5MQVJDkOUgK-19" value="Product Selection" style="rhombus;whiteSpace=wrap;html=1;" vertex="1" parent="dNxyNK7c78bLwvsdeMH5-21">
          <mxGeometry x="220" y="20" width="80" height="80" as="geometry" />
        </mxCell>
        <mxCell id="rN_zB71ed5MQVJDkOUgK-24" value="Purchase made" style="points=[[0.25,0,0],[0.5,0,0],[0.75,0,0],[1,0.25,0],[1,0.5,0],[1,0.75,0],[0.75,1,0],[0.5,1,0],[0.25,1,0],[0,0.75,0],[0,0.5,0],[0,0.25,0]];shape=mxgraph.bpmn.task;whiteSpace=wrap;rectStyle=rounded;size=10;html=1;container=1;expand=0;collapsible=0;taskMarker=abstract;bpmnShapeType=transaction;" vertex="1" parent="dNxyNK7c78bLwvsdeMH5-21">
          <mxGeometry x="370" y="20" width="120" height="80" as="geometry" />
        </mxCell>
        <mxCell id="rN_zB71ed5MQVJDkOUgK-25" style="edgeStyle=orthogonalEdgeStyle;rounded=0;orthogonalLoop=1;jettySize=auto;html=1;exitX=1;exitY=0.5;exitDx=0;exitDy=0;entryX=0;entryY=0.5;entryDx=0;entryDy=0;entryPerimeter=0;" edge="1" parent="dNxyNK7c78bLwvsdeMH5-21" source="rN_zB71ed5MQVJDkOUgK-19" target="rN_zB71ed5MQVJDkOUgK-24">
          <mxGeometry relative="1" as="geometry" />
        </mxCell>
        <mxCell id="dNxyNK7c78bLwvsdeMH5-22" value="Online Customer" style="swimlane;html=1;startSize=20;horizontal=0;" parent="dNxyNK7c78bLwvsdeMH5-19" vertex="1">
          <mxGeometry x="20" y="340" width="850" height="120" as="geometry" />
        </mxCell>
        <mxCell id="rN_zB71ed5MQVJDkOUgK-29" value="" style="edgeStyle=orthogonalEdgeStyle;rounded=0;orthogonalLoop=1;jettySize=auto;html=1;" edge="1" parent="dNxyNK7c78bLwvsdeMH5-22" source="rN_zB71ed5MQVJDkOUgK-27" target="rN_zB71ed5MQVJDkOUgK-28">
          <mxGeometry relative="1" as="geometry" />
        </mxCell>
        <mxCell id="rN_zB71ed5MQVJDkOUgK-27" value="Visits online platform" style="points=[[0.25,0,0],[0.5,0,0],[0.75,0,0],[1,0.25,0],[1,0.5,0],[1,0.75,0],[0.75,1,0],[0.5,1,0],[0.25,1,0],[0,0.75,0],[0,0.5,0],[0,0.25,0]];shape=mxgraph.bpmn.task;whiteSpace=wrap;rectStyle=rounded;size=10;html=1;container=1;expand=0;collapsible=0;taskMarker=user;" vertex="1" parent="dNxyNK7c78bLwvsdeMH5-22">
          <mxGeometry x="30" y="20" width="120" height="80" as="geometry" />
        </mxCell>
        <mxCell id="rN_zB71ed5MQVJDkOUgK-28" value="Product selection" style="rhombus;whiteSpace=wrap;html=1;" vertex="1" parent="dNxyNK7c78bLwvsdeMH5-22">
          <mxGeometry x="220" y="20" width="80" height="80" as="geometry" />
        </mxCell>
        <mxCell id="rN_zB71ed5MQVJDkOUgK-30" value="Purchase made" style="points=[[0.25,0,0],[0.5,0,0],[0.75,0,0],[1,0.25,0],[1,0.5,0],[1,0.75,0],[0.75,1,0],[0.5,1,0],[0.25,1,0],[0,0.75,0],[0,0.5,0],[0,0.25,0]];shape=mxgraph.bpmn.task;whiteSpace=wrap;rectStyle=rounded;size=10;html=1;container=1;expand=0;collapsible=0;taskMarker=abstract;bpmnShapeType=transaction;" vertex="1" parent="dNxyNK7c78bLwvsdeMH5-22">
          <mxGeometry x="370" y="20" width="120" height="80" as="geometry" />
        </mxCell>
        <mxCell id="rN_zB71ed5MQVJDkOUgK-31" style="edgeStyle=orthogonalEdgeStyle;rounded=0;orthogonalLoop=1;jettySize=auto;html=1;exitX=1;exitY=0.5;exitDx=0;exitDy=0;entryX=0;entryY=0.5;entryDx=0;entryDy=0;entryPerimeter=0;" edge="1" parent="dNxyNK7c78bLwvsdeMH5-22" source="rN_zB71ed5MQVJDkOUgK-28" target="rN_zB71ed5MQVJDkOUgK-30">
          <mxGeometry relative="1" as="geometry" />
        </mxCell>
        <mxCell id="rN_zB71ed5MQVJDkOUgK-26" style="edgeStyle=orthogonalEdgeStyle;rounded=0;orthogonalLoop=1;jettySize=auto;html=1;exitX=0.5;exitY=0;exitDx=0;exitDy=0;exitPerimeter=0;" edge="1" parent="dNxyNK7c78bLwvsdeMH5-19" source="rN_zB71ed5MQVJDkOUgK-24" target="rN_zB71ed5MQVJDkOUgK-21">
          <mxGeometry relative="1" as="geometry" />
        </mxCell>
        <mxCell id="rN_zB71ed5MQVJDkOUgK-35" style="edgeStyle=orthogonalEdgeStyle;rounded=0;orthogonalLoop=1;jettySize=auto;html=1;exitX=1;exitY=0.5;exitDx=0;exitDy=0;exitPerimeter=0;entryX=0.448;entryY=0.992;entryDx=0;entryDy=0;entryPerimeter=0;" edge="1" parent="dNxyNK7c78bLwvsdeMH5-19" source="rN_zB71ed5MQVJDkOUgK-30" target="rN_zB71ed5MQVJDkOUgK-32">
          <mxGeometry relative="1" as="geometry" />
        </mxCell>
      </root>
    </mxGraphModel>
  </diagram>
</mxfile>
